<svg viewBox="0 0 800 600" xmlns="http://www.w3.org/2000/svg">
  <!-- Title -->
  <text x="400" y="30" font-size="20" font-weight="bold" text-anchor="middle">ByteTrack Workflow for Light Post Tracking</text>
  
  <!-- Input Frame -->
  <rect x="20" y="60" width="120" height="80" fill="#e3f2fd" stroke="#1976d2" stroke-width="2"/>
  <text x="80" y="100" text-anchor="middle" font-size="14">Input Frame</text>
  <text x="80" y="120" text-anchor="middle" font-size="12">(with detections)</text>
  
  <!-- Detection Preprocessing -->
  <rect x="180" y="60" width="140" height="80" fill="#f3e5f5" stroke="#7b1fa2" stroke-width="2"/>
  <text x="250" y="90" text-anchor="middle" font-size="14">Split Detections</text>
  <text x="250" y="110" text-anchor="middle" font-size="12">High Score (>0.5)</text>
  <text x="250" y="130" text-anchor="middle" font-size="12">Low Score (≤0.5)</text>
  
  <!-- First Association -->
  <rect x="360" y="40" width="140" height="60" fill="#e8f5e9" stroke="#388e3c" stroke-width="2"/>
  <text x="430" y="70" text-anchor="middle" font-size="14">First Association</text>
  <text x="430" y="90" text-anchor="middle" font-size="12">(High Score + Tracks)</text>
  
  <!-- Second Association -->
  <rect x="360" y="120" width="140" height="60" fill="#fff3e0" stroke="#f57c00" stroke-width="2"/>
  <text x="430" y="150" text-anchor="middle" font-size="14">Second Association</text>
  <text x="430" y="170" text-anchor="middle" font-size="12">(Low Score + Unmatched)</text>
  
  <!-- Track Management -->
  <rect x="540" y="60" width="140" height="80" fill="#fce4ec" stroke="#c2185b" stroke-width="2"/>
  <text x="610" y="90" text-anchor="middle" font-size="14">Track Management</text>
  <text x="610" y="110" text-anchor="middle" font-size="12">• Update matched</text>
  <text x="610" y="130" text-anchor="middle" font-size="12">• Create new tracks</text>
  
  <!-- Arrows -->
  <defs>
    <marker id="arrowhead" markerWidth="10" markerHeight="7" 
     refX="0" refY="3.5" orient="auto">
      <polygon points="0 0, 10 3.5, 0 7" fill="#333" />
    </marker>
  </defs>
  
  <line x1="140" y1="100" x2="180" y2="100" stroke="#333" stroke-width="2" marker-end="url(#arrowhead)"/>
  <line x1="320" y1="100" x2="360" y2="80" stroke="#333" stroke-width="2" marker-end="url(#arrowhead)"/>
  <line x1="320" y1="100" x2="360" y2="140" stroke="#333" stroke-width="2" marker-end="url(#arrowhead)"/>
  <line x1="500" y1="70" x2="540" y2="90" stroke="#333" stroke-width="2" marker-end="url(#arrowhead)"/>
  <line x1="500" y1="150" x2="540" y2="110" stroke="#333" stroke-width="2" marker-end="url(#arrowhead)"/>
  
  <!-- Kalman Filter Box -->
  <rect x="180" y="200" width="440" height="100" fill="#f5f5f5" stroke="#666" stroke-width="2" stroke-dasharray="5,5"/>
  <text x="400" y="230" text-anchor="middle" font-size="16" font-weight="bold">Kalman Filter (per track)</text>
  
  <!-- Kalman States -->
  <rect x="200" y="250" width="100" height="40" fill="#e1f5fe" stroke="#0288d1" stroke-width="1"/>
  <text x="250" y="270" text-anchor="middle" font-size="12">State</text>
  <text x="250" y="285" text-anchor="middle" font-size="10">[x,y,w,h,vx,vy,vw,vh]</text>
  
  <rect x="320" y="250" width="100" height="40" fill="#f3e5f5" stroke="#7b1fa2" stroke-width="1"/>
  <text x="370" y="270" text-anchor="middle" font-size="12">Predict</text>
  <text x="370" y="285" text-anchor="middle" font-size="10">Next position</text>
  
  <rect x="440" y="250" width="100" height="40" fill="#e8f5e9" stroke="#388e3c" stroke-width="1"/>
  <text x="490" y="270" text-anchor="middle" font-size="12">Update</text>
  <text x="490" y="285" text-anchor="middle" font-size="10">With detection</text>
  
  <!-- Track States -->
  <text x="400" y="340" text-anchor="middle" font-size="16" font-weight="bold">Track States</text>
  
  <rect x="100" y="360" width="120" height="50" fill="#e8f5e9" stroke="#388e3c" stroke-width="2"/>
  <text x="160" y="385" text-anchor="middle" font-size="14">Tentative</text>
  <text x="160" y="400" text-anchor="middle" font-size="12">(< 3 frames)</text>
  
  <rect x="260" y="360" width="120" height="50" fill="#fff9c4" stroke="#f9a825" stroke-width="2"/>
  <text x="320" y="385" text-anchor="middle" font-size="14">Confirmed</text>
  <text x="320" y="400" text-anchor="middle" font-size="12">(≥ 3 frames)</text>
  
  <rect x="420" y="360" width="120" height="50" fill="#ffebee" stroke="#c62828" stroke-width="2"/>
  <text x="480" y="385" text-anchor="middle" font-size="14">Lost</text>
  <text x="480" y="400" text-anchor="middle" font-size="12">(no match)</text>
  
  <rect x="580" y="360" width="120" height="50" fill="#e0e0e0" stroke="#616161" stroke-width="2"/>
  <text x="640" y="385" text-anchor="middle" font-size="14">Removed</text>
  <text x="640" y="400" text-anchor="middle" font-size="12">(> 30 frames lost)</text>
  
  <!-- State Transitions -->
  <line x1="220" y1="385" x2="260" y2="385" stroke="#333" stroke-width="2" marker-end="url(#arrowhead)"/>
  <line x1="380" y1="385" x2="420" y2="385" stroke="#333" stroke-width="2" marker-end="url(#arrowhead)"/>
  <line x1="540" y1="385" x2="580" y2="385" stroke="#333" stroke-width="2" marker-end="url(#arrowhead)"/>
  
  <!-- Light Post Specific Features -->
  <rect x="50" y="450" width="700" height="120" fill="#f8f9fa" stroke="#333" stroke-width="2"/>
  <text x="400" y="480" text-anchor="middle" font-size="16" font-weight="bold">Light Post Tracking Optimizations</text>
  
  <rect x="70" y="500" width="150" height="50" fill="#e3f2fd" stroke="#1565c0" stroke-width="1"/>
  <text x="145" y="520" text-anchor="middle" font-size="12" font-weight="bold">Static Assumption</text>
  <text x="145" y="535" text-anchor="middle" font-size="11">Low velocity noise</text>
  <text x="145" y="548" text-anchor="middle" font-size="11">in Kalman filter</text>
  
  <rect x="250" y="500" width="150" height="50" fill="#f3e5f5" stroke="#6a1b9a" stroke-width="1"/>
  <text x="325" y="520" text-anchor="middle" font-size="12" font-weight="bold">GPS Integration</text>
  <text x="325" y="535" text-anchor="middle" font-size="11">Track 3D positions</text>
  <text x="325" y="548" text-anchor="middle" font-size="11">for triangulation</text>
  
  <rect x="430" y="500" width="150" height="50" fill="#e8f5e9" stroke="#2e7d32" stroke-width="1"/>
  <text x="505" y="520" text-anchor="middle" font-size="12" font-weight="bold">Appearance Buffer</text>
  <text x="505" y="535" text-anchor="middle" font-size="11">Store visual features</text>
  <text x="505" y="548" text-anchor="middle" font-size="11">for re-identification</text>
  
  <rect x="610" y="500" width="120" height="50" fill="#fff3e0" stroke="#e65100" stroke-width="1"/>
  <text x="670" y="520" text-anchor="middle" font-size="12" font-weight="bold">ID Persistence</text>
  <text x="670" y="535" text-anchor="middle" font-size="11">Long buffer for</text>
  <text x="670" y="548" text-anchor="middle" font-size="11">occluded objects</text>
</svg>